<?xml version="1.0" standalone="no"?><!DOCTYPE svg PUBLIC "-//W3C//DTD SVG 1.1//EN" "http://www.w3.org/Graphics/SVG/1.1/DTD/svg11.dtd"><svg class="icon" width="200px" height="200.00px" viewBox="0 0 1024 1024" version="1.1" xmlns="http://www.w3.org/2000/svg"><path d="M511.700312 512.399688m-511.600312 0a511.600312 511.600312 0 1 0 1023.200625 0 511.600312 511.600312 0 1 0-1023.200625 0Z" fill="#FFFFFF" /><path d="M511.200703 1.498829c281.180328 0 511.200625 229.820453 511.200624 510.701015s-230.020297 510.601093-511.200624 510.601093c-281.180328 0-511.200625-229.820453-511.200625-510.601093C0.000078 231.319282 230.020375 1.498829 511.200703 1.498829z m0 0" fill="#1071AA" /><path d="M315.153864 433.861046H409.779938v306.360656h-94.526152V433.861046z m46.064013-150.682279c22.982045 0 43.466042 12.790008 51.160031 33.174082 10.192037 20.384075 5.096019 43.36612-10.192038 61.252147-15.288056 17.886027-40.868072 20.384075-61.352068 10.192038S307.559797 359.71897 307.559797 336.736924c0-15.288056 5.096019-28.078064 15.288056-38.270101 10.192037-10.192037 25.580016-15.288056 38.370024-15.288056z m107.316159 150.682279h92.028103v40.868072c17.886027-30.676034 53.65808-51.060109 89.430133-48.462139 97.124122 0 115.010148 63.850117 115.010148 145.486339v168.468384h-94.526151V592.137393c0-35.772053 0-81.736144-51.160032-81.736144s-56.25605 38.270101-56.25605 79.138173v153.180328h-94.526151V433.861046z m0 0" fill="#FFFFFF" /></svg>