<?xml version="1.0" standalone="no"?><!DOCTYPE svg PUBLIC "-//W3C//DTD SVG 1.1//EN" "http://www.w3.org/Graphics/SVG/1.1/DTD/svg11.dtd"><svg class="icon" width="64px" height="64.00px" viewBox="0 0 1024 1024" version="1.1" xmlns="http://www.w3.org/2000/svg"><path d="M512 63C264 63 63 264 63 512s201 449 449 449 449-201 449-449S760 63 512 63z m0 860.6C285.1 923.6 100.4 739 100.4 512c0-226.9 184.6-411.6 411.6-411.6S923.6 285.1 923.6 512 738.9 923.6 512 923.6z" fill="#ffffff" /><path d="M363.9 449.6c21.5 0 39-17.8 39-39.6v-8c0-21.9-17.4-39.6-39-39.6-21.5 0-39 17.7-39 39.6v7.9c0 21.9 17.5 39.7 39 39.7zM666.3 449.6c21.5 0 39-17.8 39-39.6v-8c0-21.9-17.5-39.6-39-39.6s-39 17.7-39 39.6v7.9c0 21.9 17.5 39.7 39 39.7zM519.2 593c-85 0-164.6 45.3-207.8 118.2-5.3 8.9-2.3 20.4 6.6 25.6 8.9 5.3 20.4 2.3 25.6-6.6 35.4-59.8 100.8-99.9 175.6-99.9 73.4 0 137.7 38.6 173.6 96.5 5.4 8.8 17 11.5 25.8 6.1s11.5-17 6.1-25.8C680.3 635.7 603.5 593 519.2 593z" fill="#ffffff" /></svg>