<?xml version="1.0" standalone="no"?><!DOCTYPE svg PUBLIC "-//W3C//DTD SVG 1.1//EN" "http://www.w3.org/Graphics/SVG/1.1/DTD/svg11.dtd"><svg class="icon" width="64px" height="64.00px" viewBox="0 0 1024 1024" version="1.1" xmlns="http://www.w3.org/2000/svg"><path d="M512 63C264 63 63 264 63 512s201 449 449 449 449-201 449-449S760 63 512 63z m0 860.6C285.1 923.6 100.4 739 100.4 512c0-226.9 184.6-411.6 411.6-411.6S923.6 285.1 923.6 512 738.9 923.6 512 923.6z" fill="#ffffff" /><path d="M363.9 449.6c21.5 0 39-17.8 39-39.6v-8c0-21.9-17.4-39.6-39-39.6-21.5 0-39 17.7-39 39.6v7.9c0 21.9 17.5 39.7 39 39.7zM666.3 449.6c21.5 0 39-17.8 39-39.6v-8c0-21.9-17.5-39.6-39-39.6s-39 17.7-39 39.6v7.9c0 21.9 17.5 39.7 39 39.7zM718.5 592c-8.8-5.4-20.3-2.7-25.8 6.1-35.9 57.9-100.2 96.5-173.6 96.5-74.8 0-140.2-40.1-175.6-99.9-5.3-8.9-16.7-11.8-25.6-6.6-8.9 5.3-11.8 16.7-6.6 25.6 43.3 73 122.9 118.3 207.9 118.3 84.3 0 161.1-42.7 205.4-114.2 5.4-8.8 2.7-20.4-6.1-25.8z" fill="#ffffff" /></svg>