<?xml version="1.0" standalone="no"?><!DOCTYPE svg PUBLIC "-//W3C//DTD SVG 1.1//EN" "http://www.w3.org/Graphics/SVG/1.1/DTD/svg11.dtd"><svg class="icon" width="200px" height="200.00px" viewBox="0 0 1024 1024" version="1.1" xmlns="http://www.w3.org/2000/svg"><path d="M170.666 213.333h682.666v639.999H170.666z" fill="#FFFFFF" /><path d="M512.895 1023.998c-207.402 0.512-394.367-124.416-473.727-315.903S3.285 296.405 149.76 149.973 516.948-40.49 708.01 39.381a512.212 512.212 0 0 1 315.988 473.6c0 282.154-228.394 510.505-511.103 511.017z m112.64-738.857l-15.872 2.048c-9.728 2.048-19.456 5.12-28.672 8.704a127.317 127.317 0 0 0-72.704 86.528c-5.12 19.968-5.12 40.96 0 60.416-19.456 0-38.912-2.56-57.344-7.68a376.746 376.746 0 0 1-156.714-76.288 236.16 236.16 0 0 1-37.93-37.376 104.49 104.49 0 0 1-11.777-13.824 143.232 143.232 0 0 0-13.824 33.28 133.376 133.376 0 0 0 28.672 117.248c6.656 8.192 16.896 13.312 23.552 20.48a33.835 33.835 0 0 1-17.408-1.536 126.037 126.037 0 0 1-27.136-7.68l-13.824-5.12a123.562 123.562 0 0 0 60.416 110.591c12.288 9.216 26.624 14.848 41.984 16.896-8.192 7.168-44.544 4.096-57.344 2.56 12.8 38.912 43.008 69.12 81.45 82.432 12.289 4.608 25.089 6.656 37.889 6.656a168.533 168.533 0 0 1-34.816 22.528 277.162 277.162 0 0 1-76.8 28.16c-11.776 2.56-24.064 2.048-37.376 4.096a183.04 183.04 0 0 1-40.96-1.536l11.264 6.656c11.776 7.168 23.552 13.312 36.352 18.432 24.576 10.24 49.664 18.432 75.264 24.576 60.416 12.8 123.434 10.752 182.826-6.144C638.89 738.26 723.881 639.956 756.18 495.061c5.12-27.136 7.168-55.296 6.144-82.944l20.48-16.896a214.826 214.826 0 0 0 43.52-50.176 255.573 255.573 0 0 1-72.704 19.968c5.12-2.56 9.728-6.144 14.336-10.24 19.456-15.872 33.792-36.864 41.472-60.416l-15.872 8.704a207.957 207.957 0 0 1-66.56 22.016 129.28 129.28 0 0 0-100.906-40.448v0.512h-0.555z" fill="#2FB0EC" /></svg>